<?xml version="1.0" standalone="no"?>
<!DOCTYPE svg PUBLIC "-//W3C//DTD SVG 1.1//EN" "http://www.w3.org/Graphics/SVG/1.1/DTD/svg11.dtd" >
<svg xmlns="http://www.w3.org/2000/svg" xmlns:xlink="http://www.w3.org/1999/xlink" version="1.1">
<metadata>
Created by FontForge 20170924 at Sun Dec 16 14:29:38 2018
 By www-data
</metadata>
<defs>
<font id="LatinAndPunctuation_Horizontal" horiz-adv-x="2048" vert-adv-y="2048" >
  <font-face 
    font-family="LatinAndPunctuation_Horizontal"
    font-weight="400"
    font-stretch="normal"
    units-per-em="2048"
    panose-1="2 0 5 3 0 0 0 0 0 0"
    ascent="1638"
    descent="-410"
    x-height="1120"
    cap-height="1583"
    bbox="-8 -457 2028 1659"
    underline-thickness="102"
    underline-position="-307"
    unicode-range="U+0001-FF1F"
  />
<missing-glyph horiz-adv-x="748" 
d="M68 0v1365h544v-1365h-544zM136 68h408v1229h-408v-1229z" />
    <glyph glyph-name=".notdef" horiz-adv-x="748" 
d="M68 0v1365h544v-1365h-544zM136 68h408v1229h-408v-1229z" />
    <glyph glyph-name=".null" horiz-adv-x="0" vert-adv-y="0" 
 />
    <glyph glyph-name="nonmarkingreturn" horiz-adv-x="682" 
 />
    <glyph glyph-name="GB1.1" horiz-adv-x="512" 
 />
    <glyph glyph-name="GB1.2" unicode="!" horiz-adv-x="624" 
d="M528 1485l-22 -932q-3 -93 39 -135h-461q40 43 37 135l-23 932q0 97 -39 139h506q-34 -40 -37 -139zM524 201v-162q0 -75 29 -100h-477q28 28 28 100v162q0 73 -28 98h477q-29 -23 -29 -98z" />
    <glyph glyph-name="GB1.3" unicode="&#x22;" horiz-adv-x="829" 
d="M379 1597v-366q0 -37 16 -53h-336q15 15 15 53v366q0 39 -15 54h336q-16 -16 -16 -54zM758 1597v-366q0 -41 12 -53h-336q19 16 19 53v366q0 38 -19 54h336q-12 -12 -12 -54z" />
    <glyph glyph-name="GB1.4" unicode="#" horiz-adv-x="1796" 
d="M1268 -16h-404l78 489h-229l-78 -489h-404l78 489h-260v117h281l73 461h-215v112h234l65 400h404l-66 -400h228l65 400h404l-66 -400h295v-112h-313l-74 -461h248v-117h-266zM807 1051l-74 -461h228l73 461h-227z" />
    <glyph glyph-name="GB1.5" unicode="$" horiz-adv-x="1538" 
d="M985 -88h-387v229h-502l-47 238q54 -67 118.5 -93t168.5 -26h262v416h-340q-66 0 -110.5 29t-61 66.5t-16.5 78.5v436q0 57 43.5 98.5t105.5 38.5h379v226h387v-226h418l49 -235q-56 67 -121 93t-168 26h-178v-463h315q83 0 136 -65.5t53 -131.5v-368q0 -58 -41 -98
t-111 -40h-352v-229zM434 881q0 -14 11 -25.5t26 -11.5h127v463h-127q-15 0 -26 -12.5t-11 -26.5v-387zM1051 676h-66v-416h66q75 0 75 76v262q0 34 -20 56t-55 22z" />
    <glyph glyph-name="GB1.6" unicode="%" horiz-adv-x="1693" 
d="M539 -59h-363l967 1665h360zM385 1057h49q12 0 20.5 7t8.5 19v404q0 11 -8.5 18.5t-20.5 7.5h-49q-11 0 -19 -8t-8 -18v-404q0 -12 8 -19t19 -7zM1245 33h49q11 0 20 7.5t9 16.5v404q0 13 -9 20.5t-20 7.5h-49q-28 0 -28 -28v-404q0 -9 8 -16.5t20 -7.5zM1047 569h598
q-25 -25 -25 -94v-362q0 -89 -28.5 -125.5t-96.5 -36.5h-600q25 36 25 96v389q0 63 33 98t94 35zM190 1595h596q-26 -29 -26 -98v-360q0 -89 -28.5 -124.5t-96.5 -35.5h-600q26 26 26 92v389q0 64 33 100.5t96 36.5z" />
    <glyph glyph-name="GB1.7" unicode="&#x26;" horiz-adv-x="1757" 
d="M1163 -16l-65 100l-90 -133h-945q43 37 43 151v426q0 103 77 173.5t198 70.5h41q-260 22 -260 203v463q0 105 -37 151h1092q-39 -45 -39 -151v-463q0 -66 -43 -111.5t-103 -65t-137 -26.5q103 6 145 -57l78 -113l199 287q9 17 2 22h391q-69 -27 -113 -92l-309 -457
l146 -204q55 -81 121 -80t118 90l-49 -217h-461q13 17 0 33zM694 78q57 0 86 37l152 219l-215 325q-28 43 -80 43h-107q-17 0 -30 -13t-13 -27v-539q0 -20 13 -32.5t32 -12.5h162zM752 1458h-162q-19 0 -31 -11.5t-12 -31.5v-551q0 -19 11.5 -30t31.5 -11h162
q18 0 29.5 11.5t11.5 29.5v551q0 20 -11.5 31.5t-29.5 11.5z" />
    <glyph glyph-name="GB1.8" unicode="'" horiz-adv-x="532" 
d="M446 1583v-315q0 -47 23 -70h-406q23 23 23 70v315q0 47 -23 70h406q-23 -23 -23 -70z" />
    <glyph glyph-name="GB1.9" unicode="(" horiz-adv-x="561" 
d="M184 1659h320q-132 -443 -135 -881q0 -442 133 -878h-320q-126 439 -123 878q0 431 125 881z" />
    <glyph glyph-name="GB1.10" unicode=")" horiz-adv-x="559" 
d="M57 1659h320q125 -450 125 -881q3 -439 -123 -878h-320q134 439 134 878q-3 435 -136 881z" />
    <glyph glyph-name="GB1.11" unicode="*" horiz-adv-x="768" 
d="M668 1368l-125 -70l102 -98q23 -26 47 -26l-160 -152q0 19 -24 43l-123 121l-125 -121q-24 -24 -24 -43l-160 152q24 0 47 26l102 98l-125 70q-35 19 -51 14l111 187q6 -21 39 -37l88 -51v121q0 37 -15 49h224q-15 -12 -15 -49v-121l88 51q33 16 39 37l111 -187
q-16 5 -51 -14z" />
    <glyph glyph-name="GB1.12" unicode="+" horiz-adv-x="1683" 
d="M1057 92h-406v608h-485v115h485v610h406v-610h483v-115h-483v-608z" />
    <glyph glyph-name="GB1.13" unicode="," horiz-adv-x="651" 
d="M553 207l-51 -201q-12 -65 4 -86h-451q28 22 45 86l52 201q11 65 -5 86h451q-29 -23 -45 -86z" />
    <glyph glyph-name="GB1.14" unicode="-" horiz-adv-x="1333" 
d="M61 707v116h1211v-116h-1211z" />
    <glyph glyph-name="GB1.15" unicode="." horiz-adv-x="577" 
d="M471 209v-201q0 -63 23 -86h-431q23 23 23 86v201q0 63 -23 86h431q-23 -23 -23 -86z" />
    <glyph glyph-name="GB1.16" unicode="/" horiz-adv-x="964" 
d="M397 -96h-362l534 1753h361z" />
    <glyph glyph-name="GB1.17" unicode="0" horiz-adv-x="1472" 
d="M596 86h281q18 0 30.5 12.5t12.5 30.5v1280q0 18 -12.5 30.5t-30.5 12.5h-281q-19 0 -31 -12t-12 -31v-1280q0 -19 12 -31t31 -12zM307 1579h1102q-43 -40 -43 -149v-1219q0 -138 -45 -195t-150 -57h-1108q43 43 43 150v1259q0 99 51.5 155t149.5 56z" />
    <glyph glyph-name="GB1.18" unicode="1" horiz-adv-x="651" 
d="M549 1432v-1323q0 -110 43 -150h-533q43 43 43 150v1323q0 106 -43 149h533q-43 -40 -43 -149z" />
    <glyph glyph-name="GB1.19" unicode="2" horiz-adv-x="1423" 
d="M1294 956l-747 -485v-342q0 -19 12 -31t31 -12h436q115 0 185.5 28t131.5 101l-53 -256h-1233q43 43 43 150v497l748 467v334q0 18 -12.5 30.5t-30.5 12.5h-504q-90 0 -133 -14t-70 -56v197h1239q-43 -40 -43 -150v-471z" />
    <glyph glyph-name="GB1.20" unicode="3" horiz-adv-x="1374" 
d="M147 840h596q78 24 78 121v450q0 19 -12 31t-29 12h-522q-90 0 -133 -14t-72 -56v197h1258q-41 -41 -41 -149v-471q0 -68 -30 -122t-83 -63q53 -25 83 -77.5t30 -108.5v-481q0 -109 41 -150h-1258v197q29 -42 72 -56t133 -14h522q17 0 29 12t12 31v461q0 83 -78 121h-393
q-90 0 -133 -14t-70 -56v199z" />
    <glyph glyph-name="GB1.21" unicode="4" horiz-adv-x="1605" 
d="M1280 461h276v-197q-29 42 -71.5 56t-132.5 14h-72v-225q0 -107 43 -150h-532q43 40 43 150v225h-799q55 39 94 121l533 1061q21 44 10 63h651q-43 -43 -43 -149v-969zM467 461h367v737z" />
    <glyph glyph-name="GB1.22" unicode="5" horiz-adv-x="1409" 
d="M92 1579h1223v-197q-27 42 -70 56t-133 14h-530v-500q0 -19 12 -31t31 -12h725q-41 -41 -41 -149v-535q0 -138 -57.5 -202t-186.5 -64h-918l-86 279q137 -152 332 -152h301q92 0 129 33.5t37 124.5v495q0 17 -12 30t-29 13h-727q43 43 43 150v498q0 106 -43 149z" />
    <glyph glyph-name="GB1.23" unicode="6" horiz-adv-x="1433" 
d="M1106 -41h-1043q43 43 43 150v1239q0 98 73.5 164.5t172.5 66.5h948l60 -258q-68 75 -145 103t-203 28h-375q-38 0 -61 -26.5t-23 -63.5v-473h817q-41 -41 -41 -150v-567q0 -213 -223 -213zM596 86h205q33 0 56.5 22.5t23.5 57.5v553q0 17 -12 30t-29 13h-287v-633
q0 -19 12 -31t31 -12z" />
    <glyph glyph-name="GB1.24" unicode="7" horiz-adv-x="1314" 
d="M47 1579h1225q-56 -44 -82 -149l-389 -1358q-21 -77 2 -113h-527q36 42 55 84t48 145l369 1264h-498q-90 0 -133 -14t-70 -56v197z" />
    <glyph glyph-name="GB1.25" unicode="8" horiz-adv-x="1435" 
d="M905 127v535q0 15 -12 27.5t-27 12.5h-297q-15 0 -28 -12.5t-13 -27.5v-535q0 -17 13 -30t30 -13h293q17 0 29 13t12 30zM1372 -41h-1309q43 37 43 150v421q0 101 76.5 170t196.5 72q-115 8 -186.5 56.5t-71.5 144.5v457q0 107 -37 149h1268q-37 -42 -37 -149v-457
q0 -96 -71.5 -144.5t-186.5 -56.5q120 -3 196 -72t76 -170v-421q0 -113 43 -150zM846 1452h-256q-18 0 -29.5 -12.5t-11.5 -32.5v-545q0 -18 11.5 -29.5t29.5 -11.5h256q17 0 29 12t12 29v545q0 20 -11.5 32.5t-29.5 12.5z" />
    <glyph glyph-name="GB1.26" unicode="9" horiz-adv-x="1433" 
d="M328 1579h1042q-43 -43 -43 -149v-1240q0 -98 -73.5 -164.5t-172.5 -66.5h-948l-59 258q68 -75 145 -103t203 -28h375q38 0 61 26.5t23 63.5v473h-818q41 41 41 150v567q0 213 224 213zM838 1452h-205q-33 0 -56.5 -22.5t-23.5 -57.5v-553q0 -17 12 -30t29 -13h287v633
q0 19 -12 31t-31 12z" />
    <glyph glyph-name="GB1.27" unicode=":" horiz-adv-x="622" 
d="M535 1053v-226q0 -68 26 -94h-500q27 27 27 94v226q0 67 -27 94h500q-26 -26 -26 -94zM535 266v-225q0 -68 26 -94h-500q27 27 27 94v225q0 67 -27 94h500q-26 -26 -26 -94z" />
    <glyph glyph-name="GB1.28" unicode=";" horiz-adv-x="706" 
d="M616 1034v-225q0 -67 27 -94h-500q27 27 27 94v225q0 67 -27 94h500q-27 -27 -27 -94zM592 248l-35 -225q-9 -37 -8 -49.5t12 -26.5h-498q15 12 21 17.5t13.5 20.5t13.5 38l34 225q16 68 -4 94h500q-33 -26 -49 -94z" />
    <glyph glyph-name="GB1.29" unicode="&#x3c;" horiz-adv-x="673" 
d="M23 674v211l595 760v-334l-403 -531l403 -532v-334z" />
    <glyph glyph-name="GB1.30" unicode="=" horiz-adv-x="1241" 
d="M61 487v127h1145v-127h-1145zM61 897v127h1145v-127h-1145z" />
    <glyph glyph-name="GB1.31" unicode="&#x3e;" horiz-adv-x="686" 
d="M618 885v-211l-595 -760v334l403 532l-403 531v334z" />
    <glyph glyph-name="GB1.32" unicode="?" horiz-adv-x="1398" 
d="M66 1616h1263q-20 -22 -28.5 -52t-8.5 -85v-432l-374 -547q-40 -58 -15 -90h-522q65 46 139 159l369 564v329q0 15 -12 26t-27 11h-305q-15 0 -26 -11t-11 -26v-252q0 -55 8.5 -85t28.5 -52h-479q20 22 28 52t8 85v269q0 55 -8 85t-28 52zM891 219v-203q0 -64 22 -86
h-518q25 25 25 86v203q0 58 -25 86h518q-22 -25 -22 -86z" />
    <glyph glyph-name="GB1.33" unicode="@" horiz-adv-x="1576" 
d="M1491 272h-1006q21 41 21 134v800q0 162 151 162h414q-12 -28 -12 -119v-872h37q15 0 27 12.5t12 30.5v1022q0 18 -11.5 30.5t-25.5 12.5h-643q-17 0 -28 -12t-11 -31v-1333q0 -19 11 -31t28 -12h725q100 0 179 35.5t161 129.5l-56 -286h-1405q39 39 39 143v1315
q0 96 43 149.5t127 53.5h1223q-37 -37 -37 -144v-1044q0 -106 37 -146zM793 1266h-21q-7 0 -13.5 -6.5t-6.5 -14.5v-848q0 -9 6 -14.5t14 -5.5h39v868q0 8 -5.5 14.5t-12.5 6.5z" />
    <glyph glyph-name="GB1.34" unicode="A" horiz-adv-x="1640" 
d="M1110 51l-117 365h-532l-109 -359q-21 -72 -10 -104h-295q28 24 46 55.5t38 95.5l424 1379q20 60 4 92h528q-20 -32 0 -92l453 -1379q36 -107 80 -151h-516q14 18 15.5 37.5t-9.5 60.5zM723 1266l-223 -723h452z" />
    <glyph glyph-name="GB1.35" unicode="B" horiz-adv-x="1527" 
d="M66 -47q24 24 33.5 57t9.5 94v1321q0 110 -43 150h1214q67 0 104 -43t37 -107v-471q0 -68 -29.5 -121.5t-82.5 -62.5q53 -25 82.5 -77.5t29.5 -108.5v-482q0 -61 -40.5 -105t-102.5 -44h-1212zM973 584q0 46 -26.5 83.5t-84.5 37.5h-307v-580q0 -19 10 -31t27 -12h340
q17 0 29 12t12 31v459zM555 1399v-568h307q54 0 82.5 36.5t28.5 84.5v453q0 19 -12 31t-29 12h-336q-17 0 -29 -14.5t-12 -34.5z" />
    <glyph glyph-name="GB1.36" unicode="C" horiz-adv-x="1380" 
d="M555 1405v-1282q0 -17 12 -29t29 -12h412q115 0 185.5 28t131.5 99l-53 -256h-1209q24 24 33.5 57t9.5 94v1321q0 110 -43 150h1203v-199q-29 42 -72.5 57t-132.5 15h-465q-17 0 -29 -13t-12 -30z" />
    <glyph glyph-name="GB1.37" unicode="D" horiz-adv-x="1435" 
d="M1174 -47h-1111q24 24 33.5 57t9.5 94v1323q0 61 -9.5 94.5t-33.5 57.5h1111q194 0 194 -211v-1204q0 -211 -194 -211zM555 1411v-1290q0 -17 12 -29t29 -12h244q42 0 62 21t20 69v1212q0 70 -64 70h-262q-17 0 -29 -12t-12 -29z" />
    <glyph glyph-name="GB1.38" unicode="E" horiz-adv-x="1423" 
d="M551 1405v-561h747v-199q-27 42 -69.5 56t-132.5 14h-545v-592q0 -17 12 -29t31 -12h573q90 0 133 14t70 56v-199h-1309q43 46 43 151v1321q0 107 -43 150h1309v-199q-27 42 -70.5 57t-132.5 15h-573q-18 0 -30.5 -12.5t-12.5 -30.5z" />
    <glyph glyph-name="GB1.39" unicode="F" horiz-adv-x="1400" 
d="M104 104v1321q0 107 -43 150h1309v-199q-27 42 -70.5 57t-132.5 15h-573q-18 0 -30.5 -12.5t-12.5 -30.5v-561h735v-199q-29 42 -72 56t-133 14h-530v-611q0 -105 43 -151h-533q43 46 43 151z" />
    <glyph glyph-name="GB1.40" unicode="G" horiz-adv-x="1611" 
d="M551 1405v-1282q0 -17 12 -29t31 -12h426q19 0 31 12t12 29v616q0 19 -12 31t-31 12h-107q-89 0 -132 -14t-70 -55v196h841q-43 -43 -43 -149v-656q0 -105 43 -151h-1216q-63 0 -110.5 21t-72.5 55t-37 68.5t-12 68.5v1259q0 107 -43 150h1481v-199q-27 42 -70.5 57
t-132.5 15h-745q-18 0 -30.5 -12.5t-12.5 -30.5z" />
    <glyph glyph-name="GB1.41" unicode="H" horiz-adv-x="1521" 
d="M928 1583h532q-43 -43 -43 -149v-1321q0 -106 43 -152h-532q24 24 33.5 57.5t9.5 94.5v596h-420v-596q0 -106 43 -152h-533q43 46 43 152v1321q0 106 -43 149h533q-43 -43 -43 -149v-598h420v598q0 109 -43 149z" />
    <glyph glyph-name="GB1.42" unicode="I" horiz-adv-x="980" 
d="M719 1456h-4v-1366h4q90 0 133 14t70 56v-199h-863v199q27 -42 70 -56t133 -14h4v1366h-4q-89 0 -132.5 -14.5t-70.5 -55.5v197h863v-197q-27 41 -70.5 55.5t-132.5 14.5z" />
    <glyph glyph-name="GB1.43" unicode="J" horiz-adv-x="1083" 
d="M401 309v1147h-30q-89 0 -132.5 -14.5t-70.5 -55.5v197h862v-197q-28 38 -67.5 53t-114.5 17v-1343q0 -61 9.5 -94.5t33.5 -57.5h-723l-117 279q99 -81 180 -97t125.5 28.5t44.5 137.5z" />
    <glyph glyph-name="GB1.44" unicode="K" horiz-adv-x="1560" 
d="M553 1434v-600l489 686q22 36 19 63h358q-2 -1 -12.5 -7.5t-13 -8.5t-11.5 -8t-12.5 -9t-11 -8.5t-12 -10.5t-11 -11.5t-12.5 -13.5t-12 -15l-361 -479l441 -899q29 -60 55 -94t61 -58h-528q10 23 3.5 56.5t-34.5 95.5l-254 559l-141 -189v-370q0 -106 43 -152h-533
q43 46 43 152v1321q0 106 -43 149h533q-43 -43 -43 -149z" />
    <glyph glyph-name="GB1.45" unicode="L" horiz-adv-x="1103" 
d="M61 -39q43 46 43 152v1321q0 106 -43 149h533q-43 -43 -43 -149v-1303q0 -17 12 -29t31 -12h156q115 0 185.5 28t131.5 101l-51 -258h-955z" />
    <glyph glyph-name="GB1.46" unicode="M" horiz-adv-x="1820" 
d="M1716 1442v-1338q0 -102 41 -143h-485q41 41 41 143v1237l-250 -1222q-9 -52 6 -70h-518q12 28 12.5 60t-10.5 92l-215 1218v-1358q0 -68 29 -100h-304q29 32 29 100v1422q0 71 -29 100h637q-10 -18 -11 -42t7 -68l197 -1102l221 1112q14 73 -10 100h653
q-41 -38 -41 -141z" />
    <glyph glyph-name="GB1.47" unicode="N" horiz-adv-x="1472" 
d="M1382 1483v-1422q0 -70 27 -100h-688q19 40 -2 107l-379 1181v-1188q0 -71 29 -100h-306q29 29 29 100v1422q0 74 -29 100h644q-8 -23 -5 -45t19 -72l414 -1257v1274q0 71 -29 100h303q-27 -27 -27 -100z" />
    <glyph glyph-name="GB1.48" unicode="O" horiz-adv-x="1595" 
d="M594 86h407q18 0 30.5 12.5t12.5 30.5v1280q0 18 -12.5 30.5t-30.5 12.5h-407q-19 0 -31 -12t-12 -31v-1280q0 -19 12 -31t31 -12zM305 1579h1229q-43 -40 -43 -149v-1219q0 -138 -45 -195t-150 -57h-1235q43 43 43 150v1259q0 99 51.5 155t149.5 56z" />
    <glyph glyph-name="GB1.49" unicode="P" horiz-adv-x="1419" 
d="M551 569v-456q0 -106 43 -152h-533q43 46 43 152v1323q0 106 -43 149h1115q79 0 120 -44t41 -109v-711q0 -106 43 -152h-829zM551 1415v-717h297q19 0 31 12t12 31v674q0 19 -12 31t-31 12h-254q-19 0 -31 -12t-12 -31z" />
    <glyph glyph-name="GB1.50" unicode="Q" horiz-adv-x="1626" 
d="M301 1579h1247q-43 -40 -43 -149v-1217q0 -138 -44.5 -195t-149.5 -57h-242l16 -51q19 -55 60 -90h-332q14 25 4 55l-26 86h-734q43 43 43 150v1257q0 99 51.5 155t149.5 56zM750 88l-48 152q-11 30 -30 53h299q-4 -10 0 -31l55 -174q14 5 23.5 16.5t9.5 26.5v1278
q0 18 -12.5 30.5t-30.5 12.5h-426q-19 0 -31 -12t-12 -31v-1278q0 -19 12 -31t31 -12h160z" />
    <glyph glyph-name="GB1.51" unicode="R" horiz-adv-x="1583" 
d="M551 774v-661q0 -106 43 -152h-533q43 46 43 152v1323q0 106 -43 149h1258q79 0 120.5 -44t41.5 -109v-486q0 -81 -45.5 -126.5t-116.5 -45.5h-88l205 -661q26 -107 80 -152h-555q26 40 6 117l-185 696h-231zM551 1415v-512h440q19 0 31 12t12 31v469q0 19 -12 31t-31 12
h-397q-19 0 -31 -12t-12 -31z" />
    <glyph glyph-name="GB1.52" unicode="S" horiz-adv-x="1427" 
d="M1356 670v-566q0 -64 -45 -107.5t-119 -43.5h-1081l-52 258q61 -73 131.5 -101t184.5 -28h450q82 0 82 82v405q0 36 -23 60t-59 24h-536q-55 0 -96.5 18t-64 48t-33.5 62t-11 65v586q0 62 47 107t117 42h1067l51 -256q-61 72 -131.5 100.5t-183.5 28.5h-478
q-17 0 -29 -13t-12 -30v-485q0 -17 12 -29t29 -12h578q61 0 110 -37.5t72 -85.5t23 -92z" />
    <glyph glyph-name="GB1.53" unicode="T" horiz-adv-x="1476" 
d="M1233 1456h-270v-1343q0 -61 9.5 -94.5t33.5 -57.5h-533q43 46 43 152v1343h-272q-89 0 -132.5 -15t-70.5 -57v199h1395v-199q-27 42 -70.5 57t-132.5 15z" />
    <glyph glyph-name="GB1.54" unicode="U" horiz-adv-x="1669" 
d="M104 113v1321q0 106 -43 149h533q-43 -43 -43 -149v-1303q0 -17 12 -29t31 -12h481q17 0 29 12t12 29v1303q0 108 -41 149h531q-41 -41 -41 -149v-1321q0 -60 9.5 -94t31.5 -58h-1545q43 46 43 152z" />
    <glyph glyph-name="GB1.55" unicode="V" horiz-adv-x="1720" 
d="M944 203l432 1288q16 54 -2 92h303q-46 -37 -80 -147l-462 -1393q-16 -52 14 -82h-631q22 35 8 94l-401 1381q-34 110 -80 147h516q-18 -41 -2 -92z" />
    <glyph glyph-name="GB1.56" unicode="W" horiz-adv-x="2076" 
d="M1518 158l231 1333q9 65 0 92h260q-26 -23 -43 -108l-258 -1432q-9 -58 8 -82h-571q20 39 12 107l-125 890l-166 -915q-10 -65 2 -82h-585q27 44 16 107l-195 1368q-17 118 -51 147h432q-15 -50 -8 -92l203 -1333l229 1333q13 65 0 92h416q-12 -40 -4 -92z" />
    <glyph glyph-name="GB1.57" unicode="X" horiz-adv-x="1787" 
d="M797 504l-351 -441q-22 -29 -30 -57.5t-2 -44.5h-346q49 31 97 78.5t114 132.5l401 512l-469 727q-76 123 -158 172h600q-9 -45 21 -92l295 -442l329 419q55 69 62 115h323q-40 -28 -71.5 -60t-85.5 -100l-439 -553l492 -737q44 -67 80.5 -106t77.5 -66h-637
q17 47 -27 117z" />
    <glyph glyph-name="GB1.58" unicode="Y" horiz-adv-x="1662" 
d="M1071 729v-616q0 -106 43 -152h-532q24 24 33.5 57.5t9.5 94.5v643l-428 659q-78 119 -160 168h561q-8 -41 20 -90l347 -541l342 570q19 32 14 61h303q-38 -26 -58 -47.5t-57 -81.5z" />
    <glyph glyph-name="GB1.59" unicode="Z" horiz-adv-x="1740" 
d="M129 1581h1540q-104 -96 -168 -199l-817 -1292h684q116 0 186.5 28t131.5 101l-54 -258h-1583q86 53 168 189l817 1304h-702q-89 0 -132.5 -15t-70.5 -57v199z" />
    <glyph glyph-name="GB1.60" unicode="[" horiz-adv-x="677" 
d="M72 1630h567v-117h-162v-1470h162v-115h-567v1702z" />
    <glyph glyph-name="GB1.61" unicode="\" horiz-adv-x="745" 
d="M709 -96h-359l-313 1751h358z" />
    <glyph glyph-name="GB1.62" unicode="]" horiz-adv-x="675" 
d="M37 1630h567v-1702h-567v115h162v1470h-162v117z" />
    <glyph glyph-name="GB1.63" unicode="^" horiz-adv-x="1153" 
d="M307 1063h-264l389 582h289l389 -582h-264l-271 405z" />
    <glyph glyph-name="GB1.64" unicode="_" horiz-adv-x="788" 
d="M61 -12v116h666v-116h-666z" />
    <glyph glyph-name="GB1.65" unicode="`" horiz-adv-x="641" 
d="M496 1534l51 -254q17 -76 45 -104h-451q16 26 4 104l-51 254q-16 75 -45 104h451q-15 -26 -4 -104z" />
    <glyph glyph-name="GB1.66" unicode="a" horiz-adv-x="1482" 
d="M1282 971v-752q0 -26 1.5 -43.5t6.5 -40.5t17.5 -35t31.5 -12q48 0 134 78l-78 -205h-1336q43 46 43 152v405q0 61 46 106.5t108 45.5h610v282q0 17 -12 29t-29 12h-563q-91 0 -133.5 -13.5t-69.5 -55.5v198h1061q78 0 120 -43t42 -108zM559 90h266q17 0 29 12t12 29v412
h-307q-17 0 -29 -13t-12 -30v-369q0 -17 12 -29t29 -12z" />
    <glyph glyph-name="GB1.67" unicode="b" horiz-adv-x="1384" 
d="M72 1583h532q-43 -43 -43 -149v-312h490q117 0 180 -49t63 -143v-817q0 -106 43 -152h-1280q23 31 30 65.5t7 86.5l21 1321q3 106 -43 149zM805 993h-244v-862q0 -17 13 -29t30 -12h201q19 0 31 12t12 29v821q0 17 -12 29t-31 12z" />
    <glyph glyph-name="GB1.68" unicode="c" horiz-adv-x="1257" 
d="M1149 -41h-1092q22 24 31.5 58t9.5 94v807q0 101 60 156.5t153 55.5h809l82 -258q-40 57 -126 93t-187 36h-301q-17 0 -29 -11.5t-12 -28.5v-832q0 -17 12 -29t29 -12h297q115 0 185 28t132 101z" />
    <glyph glyph-name="GB1.69" unicode="d" horiz-adv-x="1400" 
d="M829 993h-254q-19 0 -31 -12t-12 -29v-821q0 -17 12 -29t31 -12h211q17 0 30 12t13 29v862zM1276 1434v-1346q1 -49 11 -78t32 -49h-1276q43 46 43 152v817q0 94 63.5 143t180.5 49h499v312q0 106 -43 149h533q-43 -40 -43 -149z" />
    <glyph glyph-name="GB1.70" unicode="e" horiz-adv-x="1409" 
d="M549 952v-370h270q19 0 31 12t12 31v327q0 17 -12 29t-31 12h-227q-19 0 -31 -12t-12 -29zM1284 -39h-1225q43 46 43 152v858q0 105 -43 151h1049q100 0 150.5 -51.5t50.5 -120.5v-346q0 -105 43 -151h-803v-322q0 -17 12 -29t31 -12h428q114 0 184 28t131 101z" />
    <glyph glyph-name="GB1.71" unicode="f" horiz-adv-x="1091" 
d="M711 993v-880q0 -106 43 -152h-500q22 24 31.5 58t9.5 94v880h-51q-91 0 -133.5 -13.5t-69.5 -55.5v198h254v312q0 108 -41 149h782v-197q-29 41 -72.5 55.5t-132.5 14.5h-77q-18 0 -30.5 -12.5t-12.5 -30.5v-291h342v-198q-28 42 -71 55.5t-134 13.5h-137z" />
    <glyph glyph-name="GB1.72" unicode="g" horiz-adv-x="1421" 
d="M836 199v749q0 19 -12 31t-31 12h-228q-19 0 -31 -12t-12 -31v-706q0 -19 12 -31t31 -12h271zM1325 -424h-1225l-51 256q61 -72 132 -100.5t184 -28.5h428q18 0 30.5 12.5t12.5 30.5v324h-803q43 46 43 151v748q0 64 44.5 107.5t117.5 43.5h1095q-28 -20 -39.5 -54.5
t-11.5 -96.5v-1243q0 -107 43 -150z" />
    <glyph glyph-name="GB1.73" unicode="h" horiz-adv-x="1443" 
d="M1333 950v-837q0 -61 9.5 -94.5t33.5 -57.5h-532q22 24 31.5 58t9.5 94v839q0 17 -12 29t-29 12h-297v-880q0 -106 43 -152h-533q43 46 43 152v1321q0 106 -43 149h533q-43 -43 -43 -149v-312h606q94 0 137 -41.5t43 -130.5z" />
    <glyph glyph-name="GB1.74" unicode="i" horiz-adv-x="688" 
d="M133 1358v76q0 109 -43 149h533q-43 -43 -43 -149v-76q0 -106 43 -152h-533q24 24 33.5 57.5t9.5 94.5zM580 971v-858q0 -106 43 -152h-533q24 24 33.5 57.5t9.5 94.5v858q0 61 -9.5 94t-33.5 57h533q-43 -46 -43 -151z" />
    <glyph glyph-name="GB1.75" unicode="j" horiz-adv-x="780" 
d="M682 969v-1274q0 -61 9.5 -94.5t33.5 -57.5h-637l-96 244q118 -108 181 -83.5t63 192.5v1073q0 106 -43 149h532q-43 -40 -43 -149zM236 1356v74q0 105 -43 151h532q-24 -24 -33.5 -57t-9.5 -94v-74q0 -112 43 -152h-532q43 43 43 152z" />
    <glyph glyph-name="GB1.76" unicode="k" horiz-adv-x="1415" 
d="M573 385v-272q0 -106 43 -152h-532q43 46 43 152v1321q0 106 -43 149h532q-43 -43 -43 -149v-723l420 493q9 9 11 25t-3 28h375q-72 -34 -143 -108l-266 -336l323 -700q29 -60 54.5 -94t58.5 -58h-533q23 44 -26 152l-174 376z" />
    <glyph glyph-name="GB1.77" unicode="l" horiz-adv-x="641" 
d="M545 1434v-1321q0 -106 43 -152h-533q43 46 43 152v1321q0 106 -43 149h533q-43 -43 -43 -149z" />
    <glyph glyph-name="GB1.78" unicode="m" horiz-adv-x="1939" 
d="M1188 993v-880q0 -60 9.5 -94t31.5 -58h-518q22 24 31.5 58t9.5 94v880h-172q-19 0 -31 -12t-12 -31v-837q0 -61 9.5 -94.5t33.5 -57.5h-521q43 46 43 152v858q0 105 -43 151h1616q73 0 117.5 -43.5t44.5 -107.5v-858q0 -106 43 -152h-520q24 24 33.5 57.5t9.5 94.5v839
q0 17 -12 29t-31 12h-172z" />
    <glyph glyph-name="GB1.79" unicode="n" horiz-adv-x="1421" 
d="M1319 971v-858q0 -61 9.5 -94.5t33.5 -57.5h-533q43 46 43 152v839q0 17 -13 29t-30 12h-237q-19 0 -31 -12t-12 -29v-839q0 -106 43 -152h-533q43 46 43 152v858q0 105 -43 151h1098q78 0 120 -39t42 -112z" />
    <glyph glyph-name="GB1.80" unicode="o" horiz-adv-x="1382" 
d="M590 90h203q17 0 29 12t12 29v821q0 17 -12 29t-29 12h-203q-19 0 -31 -12t-12 -29v-821q0 -17 12 -29t31 -12zM57 1122h1047q87 0 132.5 -45t45.5 -112v-852q0 -61 9.5 -94.5t33.5 -57.5h-1046q-78 0 -128.5 48.5t-50.5 123.5v838q0 105 -43 151z" />
    <glyph glyph-name="GB1.81" unicode="p" horiz-adv-x="1368" 
d="M547 -39v-266q0 -107 43 -150h-533q43 40 43 150v1276q0 109 -43 149h1010q99 0 157 -51t58 -145v-813q0 -110 43 -150h-778zM547 950v-862h246q17 0 30 13t13 30v819q0 18 -12.5 30.5t-30.5 12.5h-203q-18 0 -30.5 -12.5t-12.5 -30.5z" />
    <glyph glyph-name="GB1.82" unicode="q" horiz-adv-x="1368" 
d="M821 -305v266h-778q43 40 43 150v813q0 94 58 145t157 51h1010q-43 -40 -43 -149v-1276q0 -110 43 -150h-533q43 43 43 150zM821 88v862q0 18 -12.5 30.5t-30.5 12.5h-203q-18 0 -30.5 -12.5t-12.5 -30.5v-819q0 -17 13 -30t30 -13h246z" />
    <glyph glyph-name="GB1.83" unicode="r" horiz-adv-x="1107" 
d="M104 113v858q0 60 -9.5 93.5t-31.5 57.5h533q-24 -24 -33.5 -57t-9.5 -94v-80l158 174q19 25 16 57h383q-77 -36 -143 -108l-414 -453v-448q0 -61 9.5 -94.5t33.5 -57.5h-533q22 24 31.5 58t9.5 94z" />
    <glyph glyph-name="GB1.84" unicode="s" horiz-adv-x="1245" 
d="M1163 440v-327q0 -82 -30 -117t-70 -35h-952l-52 258q61 -73 131.5 -101t186.5 -28h297q19 0 31 12t12 29v309q0 19 -12 31t-31 12h-410q-86 0 -135 52.5t-49 140.5v301q0 71 43 108t100 37h963v-198q-27 42 -69.5 55.5t-133.5 13.5h-414q-17 0 -29 -12t-12 -29v-299
q0 -17 12 -30t29 -13h414q81 0 130.5 -52.5t49.5 -117.5z" />
    <glyph glyph-name="GB1.85" unicode="t" horiz-adv-x="1234" 
d="M1059 -39h-719q24 24 33.5 57.5t9.5 94.5v880h-147q-91 0 -133.5 -13.5t-69.5 -55.5v198h350v105q0 61 -9.5 94t-33.5 57h532q-43 -46 -43 -151v-105h363v-198q-27 42 -69.5 55.5t-133.5 13.5h-160v-755q0 -75 48.5 -106t117.5 -7.5t125 94.5z" />
    <glyph glyph-name="GB1.86" unicode="u" horiz-adv-x="1583" 
d="M1348 971v-752q0 -33 10 -58t30 -39.5t57 0.5t85 62l-70 -223h-1401q43 46 43 152v858q0 105 -43 151h533q-43 -46 -43 -151v-840q0 -17 12 -29t31 -12h266q17 0 30 12t13 29v840q0 105 -43 151h533q-43 -46 -43 -151z" />
    <glyph glyph-name="GB1.87" unicode="v" horiz-adv-x="1511" 
d="M1391 1008l-338 -949q-23 -64 4 -98h-600q24 34 4 98l-338 949q-19 49 -35.5 72.5t-44.5 41.5h532q-17 -31 0 -84l267 -800l266 800q17 53 0 84h360q-28 -18 -43.5 -41.5t-33.5 -72.5z" />
    <glyph glyph-name="GB1.88" unicode="w" horiz-adv-x="1945" 
d="M1827 1008l-246 -949q-16 -62 12 -98h-506q30 34 21 98l-125 676l-172 -676q-14 -64 12 -98h-534q29 37 18 98l-194 949q-9 47 -22 71t-40 43h445q-15 -26 -2 -84l149 -749l172 749q12 54 -8 84h475q-14 -24 -4 -84l133 -757l178 757q14 53 -6 84h311q-27 -18 -41 -42
t-26 -72z" />
    <glyph glyph-name="GB1.89" unicode="x" horiz-adv-x="1464" 
d="M686 283l-139 -170q-87 -102 -84 -152h-414q41 23 78 56.5t90 95.5l311 381l-354 477q-79 106 -156 151h557q-9 -45 70 -151l131 -176l146 176q90 105 84 151h409q-42 -24 -80.5 -57.5t-89.5 -93.5l-311 -383l358 -475q75 -101 156 -152h-569q7 23 -8.5 56.5t-61.5 95.5z
" />
    <glyph glyph-name="GB1.90" unicode="y" horiz-adv-x="1431" 
d="M721 551l190 477q11 29 11 53q0 17 -9 39h484q-51 -39 -88 -129l-512 -1306q-11 -37 -11 -64q0 -34 17 -51h-610l-78 246q101 -113 174 -113q89 0 164 182l71 178l-409 971q-24 59 -62 86h455q-8 -13 -8 -35q0 -30 12 -51z" />
    <glyph glyph-name="GB1.91" unicode="z" horiz-adv-x="1318" 
d="M1114 971l-471 -881h303q116 0 186.5 28t131.5 101l-52 -258h-1157q69 47 121 152l453 880h-316q-90 0 -132.5 -13.5t-69.5 -55.5v198h1124q-35 -24 -62.5 -57.5t-58.5 -93.5z" />
    <glyph glyph-name="GB1.92" unicode="{" horiz-adv-x="829" 
d="M16 721v115h43q71 0 103.5 28.5t32.5 89.5v697h565v-117h-123q-16 0 -27.5 -10.5t-11.5 -28.5v-512q0 -107 -39.5 -151.5t-144.5 -53.5q104 -7 144 -52t40 -151v-514q0 -18 11.5 -28t27.5 -10h123v-115h-565v696q0 60 -33 88.5t-103 28.5h-43z" />
    <glyph glyph-name="GB1.93" unicode="|" horiz-adv-x="532" 
d="M469 -74h-408v1694h408v-1694z" />
    <glyph glyph-name="GB1.94" unicode="}" horiz-adv-x="829" 
d="M813 836v-115h-43q-70 0 -102.5 -28.5t-32.5 -88.5v-696h-565v115h123q16 0 27 10t11 28v514q0 105 40 150.5t145 52.5q-105 9 -145 54t-40 151v512q0 18 -11 28.5t-27 10.5h-123v117h565v-697q0 -62 32.5 -90t102.5 -28h43z" />
    <glyph glyph-name="GB1.95" unicode="~" horiz-adv-x="1052" 
d="M369 985l346 -190l295 67v-203l-328 -67l-346 190l-295 -67v203z" />
    <glyph glyph-name="GB1.97" unicode="&#x3001;" 
d="M117 27l-51 200q-16 62 -46 86h451q-15 -20 -4 -86l51 -200q17 -64 45 -86h-450q16 21 4 86z" />
    <glyph glyph-name="GB1.98" unicode="&#x3002;" 
d="M344 23h158q26 0 26 26v297q0 27 -26 27h-158q-12 0 -20.5 -7.5t-8.5 -19.5v-297q0 -12 8.5 -19t20.5 -7zM20 455h656q58 0 89.5 -31t31.5 -76v-305q0 -77 28 -102h-655q-53 0 -86 32t-33 84v295q0 75 -31 103z" />
    <glyph glyph-name="GB1.105" unicode="&#x2014;" 
d="M98 813v117h1854v-117h-1854z" />
    <glyph glyph-name="GB1.108" unicode="&#x2026;" 
d="M141 754v170q0 80 -30 110h428q-31 -34 -31 -110v-170q0 -71 31 -111h-428q30 35 30 111zM821 754v170q0 81 -33 110h429q-31 -34 -31 -110v-170q0 -71 31 -111h-429q33 33 33 111zM1499 754v170q0 81 -33 110h430q-30 -26 -30 -110v-170q0 -81 30 -111h-430
q33 33 33 111z" />
    <glyph glyph-name="GB1.115" unicode="&#x3008;" 
d="M1776 1653h252l-254 -875l254 -876h-252l-254 876z" />
    <glyph glyph-name="GB1.116" unicode="&#x3009;" 
d="M20 1653h252l254 -875l-254 -876h-252l254 876z" />
    <glyph glyph-name="GB1.117" unicode="&#x300a;" 
d="M1812 1655h216l-254 -875l254 -876h-216l-253 876zM1481 1655h213l-252 -875l252 -876h-213l-256 876z" />
    <glyph glyph-name="GB1.118" unicode="&#x300b;" 
d="M20 1653h216l253 -875l-253 -876h-216l254 876zM354 1653h213l256 -875l-256 -876h-213l252 876z" />
    <glyph glyph-name="GB1.119" unicode="&#x300c;" 
d="M1460 1630h568v-117h-164v-1339h-404v1456z" />
    <glyph glyph-name="GB1.120" unicode="&#x300d;" 
d="M588 -74h-568v117h164v1339h404v-1456z" />
    <glyph glyph-name="GB1.121" unicode="&#x300e;" 
d="M1864 1462v-1288h-459v1456h623v-168h-164zM1903 1571h-318v-1317h101v1264h217v53z" />
    <glyph glyph-name="GB1.122" unicode="&#x300f;" 
d="M184 94v1288h459v-1456h-623v168h164zM145 -14h318v1317h-101v-1264h-217v-53z" />
    <glyph glyph-name="GB1.123" unicode="&#x3016;" 
d="M1731 776q0 -123 16 -242t49.5 -236t92.5 -219.5t139 -172.5h-791v1743h791q-80 -70 -139 -172.5t-92.5 -220t-49.5 -237t-16 -243.5zM1444 1532v-1509h266q-86 114 -126 320t-40 433t40 433.5t126 322.5h-266z" />
    <glyph glyph-name="GB1.124" unicode="&#x3017;" 
d="M317 776q0 124 -16 243.5t-49.5 237t-92.5 220t-139 172.5h791v-1743h-791q80 70 139 172.5t92.5 219.5t49.5 236t16 242zM604 23v1509h-266q86 -116 126 -322.5t40 -433.5t-40 -433t-126 -320h266z" />
    <glyph glyph-name="GB1.125" unicode="&#x3010;" 
d="M2005 -94h-756v1743h756q-177 -148 -282 -390t-105 -483q0 -157 46 -319t135 -308t206 -243z" />
    <glyph glyph-name="GB1.126" unicode="&#x3011;" 
d="M776 -94h-756q177 147 282.5 389t105.5 481q0 241 -105.5 483t-282.5 390h756v-1743z" />
    <glyph glyph-name="GB1.262" unicode="&#xff01;" 
d="M487 1450l-22 -932q-3 -93 39 -135h-461q40 43 37 135l-23 932q0 97 -39 139h506q-34 -40 -37 -139zM483 166v-162q0 -75 29 -100h-477q28 28 28 100v162q0 73 -28 98h477q-29 -23 -29 -98z" />
    <glyph glyph-name="GB1.269" unicode="&#xff08;" 
d="M1708 1651h317q-133 -443 -133 -873q-3 -434 131 -870h-317q-125 430 -125 870q0 430 127 873z" />
    <glyph glyph-name="GB1.270" unicode="&#xff09;" 
d="M18 1651h318q127 -443 127 -873q0 -440 -125 -870h-318q135 439 132 870q0 427 -134 873z" />
    <glyph glyph-name="GB1.273" unicode="&#xff0c;" 
d="M518 211l-51 -201q-12 -65 4 -86h-451q29 23 46 86l51 201q11 66 -4 86h450q-29 -23 -45 -86z" />
    <glyph glyph-name="GB1.287" unicode="&#xff1a;" 
d="M537 1053v-226q0 -68 26 -94h-500q27 27 27 94v226q0 67 -27 94h500q-26 -26 -26 -94zM537 266v-225q0 -68 26 -94h-500q27 27 27 94v225q0 67 -27 94h500q-26 -26 -26 -94z" />
    <glyph glyph-name="GB1.288" unicode="&#xff1b;" 
d="M573 1034v-225q0 -67 27 -94h-500q27 27 27 94v225q0 67 -27 94h500q-27 -27 -27 -94zM551 248l-35 -225q-9 -37 -8 -49.5t12 -26.5h-497q14 11 20.5 17t13.5 20.5t13 38.5l34 225q16 68 -4 94h500q-33 -26 -49 -94z" />
    <glyph glyph-name="GB1.292" unicode="&#xff1f;" 
d="M20 1591h1264q-20 -22 -28.5 -52t-8.5 -85v-432l-375 -547q-17 -24 -22 -42t-2.5 -28t10.5 -20h-522q64 45 139 160l369 563v330q0 15 -12 26t-27 11h-305q-15 0 -26 -11t-11 -26v-252q0 -55 8.5 -85t28.5 -52h-480q20 22 28.5 52t8.5 85v268q0 55 -8.5 85t-28.5 52z
M846 195v-203q0 -64 22 -86h-518q25 25 25 86v203q0 58 -25 86h518q-22 -25 -22 -86z" />
  </font>
</defs>
</svg>
